<?xml version="1.0" encoding="UTF-8" standalone="no"?><svg xmlns="http://www.w3.org/2000/svg" xmlns:xlink="http://www.w3.org/1999/xlink" contentStyleType="text/css" height="523px" preserveAspectRatio="none" style="width:330px;height:523px;background:#FFFFFF;" version="1.1" viewBox="0 0 330 523" width="330px" zoomAndPan="magnify"><defs/><g><ellipse cx="165" cy="20" fill="#222222" rx="10" ry="10" style="stroke:#222222;stroke-width:1.0;"/><rect fill="#F1F1F1" height="35.0938" rx="12.5" ry="12.5" style="stroke:#181818;stroke-width:0.5;" width="117" x="106.5" y="50"/><text fill="#000000" font-family="sans-serif" font-size="12" lengthAdjust="spacing" textLength="97" x="116.5" y="72.457">Client sends data</text><rect fill="#F1F1F1" height="35.0938" rx="12.5" ry="12.5" style="stroke:#181818;stroke-width:0.5;" width="175" x="77.5" y="105.0938"/><text fill="#000000" font-family="sans-serif" font-size="12" lengthAdjust="spacing" textLength="155" x="87.5" y="127.5508">SmartContract receives data</text><rect fill="#F1F1F1" height="35.0938" rx="12.5" ry="12.5" style="stroke:#181818;stroke-width:0.5;" width="217" x="56.5" y="160.1875"/><text fill="#000000" font-family="sans-serif" font-size="12" lengthAdjust="spacing" textLength="197" x="66.5" y="182.6445">SmartContract sends data to Miners</text><rect fill="#F1F1F1" height="35.0938" rx="12.5" ry="12.5" style="stroke:#181818;stroke-width:0.5;" width="216" x="57" y="215.2813"/><text fill="#000000" font-family="sans-serif" font-size="12" lengthAdjust="spacing" textLength="196" x="67" y="237.7383">Miners solve mathematical problem</text><rect fill="#F1F1F1" height="35.0938" rx="12.5" ry="12.5" style="stroke:#181818;stroke-width:0.5;" width="230" x="50" y="270.375"/><text fill="#000000" font-family="sans-serif" font-size="12" lengthAdjust="spacing" textLength="210" x="60" y="292.832">Miners send solution to SmartContract</text><rect fill="#F1F1F1" height="35.0938" rx="12.5" ry="12.5" style="stroke:#181818;stroke-width:0.5;" width="308" x="11" y="325.4688"/><text fill="#000000" font-family="sans-serif" font-size="12" lengthAdjust="spacing" textLength="288" x="21" y="347.9258">SmartContract send solution on verification to Miners</text><rect fill="#F1F1F1" height="35.0938" rx="12.5" ry="12.5" style="stroke:#181818;stroke-width:0.5;" width="256" x="37" y="380.5625"/><text fill="#000000" font-family="sans-serif" font-size="12" lengthAdjust="spacing" textLength="236" x="47" y="403.0195">Miners confirm and add block to blockchain</text><rect fill="#F1F1F1" height="35.0938" rx="12.5" ry="12.5" style="stroke:#181818;stroke-width:0.5;" width="292" x="19" y="435.6563"/><text fill="#000000" font-family="sans-serif" font-size="12" lengthAdjust="spacing" textLength="272" x="29" y="458.1133">Miner that solve problem increase Bitcoin balance</text><ellipse cx="165" cy="501.75" fill="none" rx="11" ry="11" style="stroke:#222222;stroke-width:1.0;"/><ellipse cx="165" cy="501.75" fill="#222222" rx="6" ry="6" style="stroke:#111111;stroke-width:1.0;"/><line style="stroke:#181818;stroke-width:1.0;" x1="165" x2="165" y1="30" y2="50"/><polygon fill="#181818" points="161,40,165,50,169,40,165,44" style="stroke:#181818;stroke-width:1.0;"/><line style="stroke:#181818;stroke-width:1.0;" x1="165" x2="165" y1="85.0938" y2="105.0938"/><polygon fill="#181818" points="161,95.0938,165,105.0938,169,95.0938,165,99.0938" style="stroke:#181818;stroke-width:1.0;"/><line style="stroke:#181818;stroke-width:1.0;" x1="165" x2="165" y1="140.1875" y2="160.1875"/><polygon fill="#181818" points="161,150.1875,165,160.1875,169,150.1875,165,154.1875" style="stroke:#181818;stroke-width:1.0;"/><line style="stroke:#181818;stroke-width:1.0;" x1="165" x2="165" y1="195.2813" y2="215.2813"/><polygon fill="#181818" points="161,205.2813,165,215.2813,169,205.2813,165,209.2813" style="stroke:#181818;stroke-width:1.0;"/><line style="stroke:#181818;stroke-width:1.0;" x1="165" x2="165" y1="250.375" y2="270.375"/><polygon fill="#181818" points="161,260.375,165,270.375,169,260.375,165,264.375" style="stroke:#181818;stroke-width:1.0;"/><line style="stroke:#181818;stroke-width:1.0;" x1="165" x2="165" y1="305.4688" y2="325.4688"/><polygon fill="#181818" points="161,315.4688,165,325.4688,169,315.4688,165,319.4688" style="stroke:#181818;stroke-width:1.0;"/><line style="stroke:#181818;stroke-width:1.0;" x1="165" x2="165" y1="360.5625" y2="380.5625"/><polygon fill="#181818" points="161,370.5625,165,380.5625,169,370.5625,165,374.5625" style="stroke:#181818;stroke-width:1.0;"/><line style="stroke:#181818;stroke-width:1.0;" x1="165" x2="165" y1="415.6563" y2="435.6563"/><polygon fill="#181818" points="161,425.6563,165,435.6563,169,425.6563,165,429.6563" style="stroke:#181818;stroke-width:1.0;"/><line style="stroke:#181818;stroke-width:1.0;" x1="165" x2="165" y1="470.75" y2="490.75"/><polygon fill="#181818" points="161,480.75,165,490.75,169,480.75,165,484.75" style="stroke:#181818;stroke-width:1.0;"/><!--MD5=[d069cb3f6b80c43715e310556484205c]
@startuml activity1

start
:Client sends data;
:SmartContract receives data;
:SmartContract sends data to Miners;
:Miners solve mathematical problem;
:Miners send solution to SmartContract;
:SmartContract send solution on verification to Miners;
:Miners confirm and add block to blockchain;
:Miner that solve problem increase Bitcoin balance;
stop

@enduml

PlantUML version 1.2022.7(Mon Aug 22 19:01:30 CEST 2022)
(GPL source distribution)
Java Runtime: Java(TM) SE Runtime Environment
JVM: Java HotSpot(TM) 64-Bit Server VM
Default Encoding: UTF-8
Language: en
Country: US
--></g></svg>