<?xml version="1.0" encoding="UTF-8" standalone="no"?><svg xmlns="http://www.w3.org/2000/svg" xmlns:xlink="http://www.w3.org/1999/xlink" contentStyleType="text/css" height="379px" preserveAspectRatio="none" style="width:455px;height:379px;background:#FFFFFF;" version="1.1" viewBox="0 0 455 379" width="455px" zoomAndPan="magnify"><defs/><g><line style="stroke:#181818;stroke-width:0.5;stroke-dasharray:5.0,5.0;" x1="26" x2="26" y1="82.6094" y2="297.7188"/><line style="stroke:#181818;stroke-width:0.5;stroke-dasharray:5.0,5.0;" x1="110.5" x2="110.5" y1="82.6094" y2="297.7188"/><line style="stroke:#181818;stroke-width:0.5;stroke-dasharray:5.0,5.0;" x1="297.5" x2="297.5" y1="82.6094" y2="297.7188"/><text fill="#000000" font-family="sans-serif" font-size="14" lengthAdjust="spacing" textLength="36" x="5" y="79.5332">Client</text><ellipse cx="26" cy="13.5" fill="#E2E2F0" rx="8" ry="8" style="stroke:#181818;stroke-width:0.5;"/><path d="M26,21.5 L26,48.5 M13,29.5 L39,29.5 M26,48.5 L13,63.5 M26,48.5 L39,63.5 " fill="none" style="stroke:#181818;stroke-width:0.5;"/><text fill="#000000" font-family="sans-serif" font-size="14" lengthAdjust="spacing" textLength="36" x="5" y="311.252">Client</text><ellipse cx="26" cy="322.8281" fill="#E2E2F0" rx="8" ry="8" style="stroke:#181818;stroke-width:0.5;"/><path d="M26,330.8281 L26,357.8281 M13,338.8281 L39,338.8281 M26,357.8281 L13,372.8281 M26,357.8281 L39,372.8281 " fill="none" style="stroke:#181818;stroke-width:0.5;"/><text fill="#000000" font-family="sans-serif" font-size="14" lengthAdjust="spacing" textLength="91" x="62.5" y="79.5332">SmartContract</text><ellipse cx="111" cy="13.5" fill="#E2E2F0" rx="8" ry="8" style="stroke:#181818;stroke-width:0.5;"/><path d="M111,21.5 L111,48.5 M98,29.5 L124,29.5 M111,48.5 L98,63.5 M111,48.5 L124,63.5 " fill="none" style="stroke:#181818;stroke-width:0.5;"/><text fill="#000000" font-family="sans-serif" font-size="14" lengthAdjust="spacing" textLength="91" x="62.5" y="311.252">SmartContract</text><ellipse cx="111" cy="322.8281" fill="#E2E2F0" rx="8" ry="8" style="stroke:#181818;stroke-width:0.5;"/><path d="M111,330.8281 L111,357.8281 M98,338.8281 L124,338.8281 M111,357.8281 L98,372.8281 M111,357.8281 L124,372.8281 " fill="none" style="stroke:#181818;stroke-width:0.5;"/><text fill="#000000" font-family="sans-serif" font-size="14" lengthAdjust="spacing" textLength="35" x="277.5" y="79.5332">Miner</text><ellipse cx="298" cy="13.5" fill="#E2E2F0" rx="8" ry="8" style="stroke:#181818;stroke-width:0.5;"/><path d="M298,21.5 L298,48.5 M285,29.5 L311,29.5 M298,48.5 L285,63.5 M298,48.5 L311,63.5 " fill="none" style="stroke:#181818;stroke-width:0.5;"/><text fill="#000000" font-family="sans-serif" font-size="14" lengthAdjust="spacing" textLength="35" x="277.5" y="311.252">Miner</text><ellipse cx="298" cy="322.8281" fill="#E2E2F0" rx="8" ry="8" style="stroke:#181818;stroke-width:0.5;"/><path d="M298,330.8281 L298,357.8281 M285,338.8281 L311,338.8281 M298,357.8281 L285,372.8281 M298,357.8281 L311,372.8281 " fill="none" style="stroke:#181818;stroke-width:0.5;"/><polygon fill="#181818" points="99,110.9609,109,114.9609,99,118.9609,103,114.9609" style="stroke:#181818;stroke-width:1.0;"/><line style="stroke:#181818;stroke-width:1.0;" x1="26" x2="105" y1="114.9609" y2="114.9609"/><text fill="#000000" font-family="sans-serif" font-size="13" lengthAdjust="spacing" textLength="61" x="33" y="110.1045">Send Data</text><polygon fill="#181818" points="286,141.3125,296,145.3125,286,149.3125,290,145.3125" style="stroke:#181818;stroke-width:1.0;"/><line style="stroke:#181818;stroke-width:1.0;" x1="111" x2="292" y1="145.3125" y2="145.3125"/><text fill="#000000" font-family="sans-serif" font-size="13" lengthAdjust="spacing" textLength="122" x="118" y="140.4561">Send Data for solving</text><polygon fill="#181818" points="122,171.6641,112,175.6641,122,179.6641,118,175.6641" style="stroke:#181818;stroke-width:1.0;"/><line style="stroke:#181818;stroke-width:1.0;" x1="116" x2="297" y1="175.6641" y2="175.6641"/><text fill="#000000" font-family="sans-serif" font-size="13" lengthAdjust="spacing" textLength="81" x="128" y="170.8076">Send Solution</text><polygon fill="#181818" points="286,202.0156,296,206.0156,286,210.0156,290,206.0156" style="stroke:#181818;stroke-width:1.0;"/><line style="stroke:#181818;stroke-width:1.0;" x1="111" x2="292" y1="206.0156" y2="206.0156"/><text fill="#000000" font-family="sans-serif" font-size="13" lengthAdjust="spacing" textLength="163" x="118" y="201.1592">Send Solution for verification</text><line style="stroke:#181818;stroke-width:1.0;" x1="298" x2="340" y1="236.3672" y2="236.3672"/><line style="stroke:#181818;stroke-width:1.0;" x1="340" x2="340" y1="236.3672" y2="249.3672"/><line style="stroke:#181818;stroke-width:1.0;" x1="299" x2="340" y1="249.3672" y2="249.3672"/><polygon fill="#181818" points="309,245.3672,299,249.3672,309,253.3672,305,249.3672" style="stroke:#181818;stroke-width:1.0;"/><text fill="#000000" font-family="sans-serif" font-size="13" lengthAdjust="spacing" textLength="143" x="305" y="231.5107">Add Block to Blockchain</text><polygon fill="#181818" points="286,275.7188,296,279.7188,286,283.7188,290,279.7188" style="stroke:#181818;stroke-width:1.0;"/><line style="stroke:#181818;stroke-width:1.0;" x1="111" x2="292" y1="279.7188" y2="279.7188"/><text fill="#000000" font-family="sans-serif" font-size="13" lengthAdjust="spacing" textLength="142" x="118" y="274.8623">Increase Bitcoin balance</text><!--MD5=[a2b8b522bc8d881fb45814f06a306d9f]
@startuml activity2

actor Client
actor SmartContract
actor Miner

Client -> SmartContract : Send Data
SmartContract -> Miner : Send Data for solving
Miner -> SmartContract : Send Solution
SmartContract -> Miner : Send Solution for verification
Miner -> Miner : Add Block to Blockchain
SmartContract -> Miner : Increase Bitcoin balance

@enduml

PlantUML version 1.2022.7(Mon Aug 22 19:01:30 CEST 2022)
(GPL source distribution)
Java Runtime: Java(TM) SE Runtime Environment
JVM: Java HotSpot(TM) 64-Bit Server VM
Default Encoding: UTF-8
Language: en
Country: US
--></g></svg>